PathFileType	4	(X/Y/Z)	/Users/itak/Documents/Research/Walk-IL/dataset/trc/00097_00006.trc
DataRate	CameraRate	NumFrames	NumMarkers	Units	OrigDataRate	OrigDataStartFrame	OrigNumFrames
100.000000	100.000000	4	53	mm	100.000000	65	520
Frame#	Time	RPSI			LPSI			L3			STRN			T10			C7			CLAV			RBAK			LBAK			LSHO			LUPA			LAEL			LAOL			LWTS			LWPS			LFRA			LIFD			LHPS			LHTS			RSHO			RUPA			RAEL			RAOL			RWTS			RWPS			RFRA			RIFD			RHTS			RHPS			RBHD			LFHD			RFHD			LBHD			LHIP			RHIP			RASI			LASI			LKNE			LTHI			LANK			LTIP			LTOE			LMT1			LMT5			LHEE			RKNE			RTHI			RANK			RTIP			RTOE			RMT1			RMT5			RHEE			
		X1	Y1	Z1	X2	Y2	Z2	X3	Y3	Z3	X4	Y4	Z4	X5	Y5	Z5	X6	Y6	Z6	X7	Y7	Z7	X8	Y8	Z8	X9	Y9	Z9	X10	Y10	Z10	X11	Y11	Z11	X12	Y12	Z12	X13	Y13	Z13	X14	Y14	Z14	X15	Y15	Z15	X16	Y16	Z16	X17	Y17	Z17	X18	Y18	Z18	X19	Y19	Z19	X20	Y20	Z20	X21	Y21	Z21	X22	Y22	Z22	X23	Y23	Z23	X24	Y24	Z24	X25	Y25	Z25	X26	Y26	Z26	X27	Y27	Z27	X28	Y28	Z28	X29	Y29	Z29	X30	Y30	Z30	X31	Y31	Z31	X32	Y32	Z32	X33	Y33	Z33	X34	Y34	Z34	X35	Y35	Z35	X36	Y36	Z36	X37	Y37	Z37	X38	Y38	Z38	X39	Y39	Z39	X40	Y40	Z40	X41	Y41	Z41	X42	Y42	Z42	X43	Y43	Z43	X44	Y44	Z44	X45	Y45	Z45	X46	Y46	Z46	X47	Y47	Z47	X48	Y48	Z48	X49	Y49	Z49	X50	Y50	Z50	X51	Y51	Z51	X52	Y52	Z52	X53	Y53	Z53	

66	0.65	-1357.234252929688	1037.037231445312	171.6702270507812	-1371.1708984375	1028.57568359375	-4.012178897857666	-1361.74658203125	1083.8310546875	76.26921844482422	-1120.339233398438	1290.194091796875	74.57303619384766	-1386.013061523438	1217.996459960938	70.44795989990234	-1334.228637695312	1486.064453125	64.67677307128906	-1152.772705078125	1404.264404296875	70.63352966308594	-1395.050415039062	1347.122680664062	141.4220123291016	-1352.027099609375	1446.030517578125	-37.80308151245117	-1246.394165039062	1452.418823242188	-107.8989410400391	-1255.992553710938	1324.079711914062	-184.699462890625	-1227.632080078125	1109.26318359375	-200.9050598144531	-1294.762329101562	1093.703369140625	-118.9579315185547	-1126.32568359375	878.4603881835938	-123.9292831420898	-1180.974365234375	860.2940063476562	-184.4044647216797	-1201.123657226562	1000.864807128906	-203.3031921386719	-1112.4814453125	699.1162109375	-86.11241912841797	-1142.943359375	781.5261840820312	-173.3465728759766	-1097.491943359375	798.6220703125	-122.1067352294922	-1273.880737304688	1452.993286132812	243.3516998291016	-1281.830322265625	1382.145751953125	308.1475524902344	-1288.4931640625	1113.239135742188	337.4253234863281	-1275.88818359375	1092.492919921875	241.7302551269531	-1125.354614257812	874.2242431640625	300.5476379394531	-1193.369018554688	855.8580322265625	353.5846862792969	-1268.49951171875	1035.54150390625	344.1993103027344	-1123.1572265625	686.9321899414062	283.8767700195312	-1096.552001953125	772.3604125976562	303.19580078125	-1153.413330078125	768.4716796875	356.9949340820312	-1319.078979492188	1649.698120117188	125.0943756103516	-1128.872802734375	1713.622314453125	29.5762767791748	-1159.140747070312	1705.597290039062	151.2286682128906	-1296.203125	1665.080200195312	-10.30630970001221	-1268.119873046875	964.58251953125	-94.87163543701172	-1287.150390625	967.445556640625	247.5539703369141	-1163.579467773438	983.3336181640625	222.0040893554688	-1154.246215820312	976.43359375	-47.08946228027344	-1191.672973632812	502.8536987304688	-50.37836074829102	-1225.9697265625	643.0040893554688	-84.71728515625	-1329.696044921875	53.32538604736328	-69.21189880371094	-1268.218139648438	266.080322265625	-73.07474517822266	-1123.544311523438	48.28196716308594	-70.21269989013672	-1170.448120117188	46.99274826049805	-14.69657707214355	-1227.855712890625	44.14213943481445	-110.9315032958984	-1378.5302734375	50.03746032714844	9.341277122497559	-1218.515747070312	521.0532836914062	226.7742767333984	-1205.057861328125	793.031982421875	253.6889801025391	-1311.123657226562	47.24457550048828	233.6872406005859	-1242.158325195312	400.8460388183594	233.8572235107422	-1097.330200195312	43.48845291137695	177.4453735351562	-1162.010131835938	47.02872467041016	143.0531616210938	-1184.57666015625	50.13918304443359	238.2931060791016	-1362.058349609375	45.77138900756836	183.1208343505859	
67	0.66	-1357.048706054688	1037.054321289062	171.5872650146484	-1371.115112304688	1028.580444335938	-4.106308937072754	-1361.645629882812	1083.827026367188	76.18578338623047	-1120.13623046875	1290.161254882812	74.38126373291016	-1385.845336914062	1218.0068359375	70.42958831787109	-1334.043701171875	1486.03076171875	64.62960815429688	-1152.560424804688	1404.233032226562	70.49093627929688	-1394.726684570312	1347.113525390625	141.4783020019531	-1351.932983398438	1446.08544921875	-37.79230499267578	-1246.373657226562	1452.467529296875	-108.0126342773438	-1256.153686523438	1324.156372070312	-184.8143768310547	-1228.161499023438	1109.379272460938	-201.2127532958984	-1295.098510742188	1093.83203125	-119.1166229248047	-1127.250244140625	878.1493530273438	-124.8864517211914	-1182.052490234375	860.290283203125	-185.3071594238281	-1201.940185546875	1000.920532226562	-203.8647003173828	-1113.906616210938	698.6719360351562	-87.41597747802734	-1144.195068359375	781.3934936523438	-174.4798126220703	-1098.596923828125	798.3445434570312	-123.2847595214844	-1273.52099609375	1452.901611328125	243.2609558105469	-1281.386596679688	1382.035888671875	308.0770263671875	-1288.273681640625	1113.194458007812	337.3502807617188	-1275.805908203125	1092.333618164062	241.9537353515625	-1125.942993164062	873.6337280273438	301.0158996582031	-1194.011596679688	855.6339721679688	354.0632934570312	-1268.484008789062	1035.547973632812	344.2286987304688	-1124.3173828125	686.2342529296875	284.8157958984375	-1097.598388671875	771.6248779296875	303.8937072753906	-1154.400512695312	768.11328125	357.7257690429688	-1318.799194335938	1649.740600585938	125.0660095214844	-1128.48486328125	1713.5634765625	29.53324890136719	-1158.71923828125	1705.458618164062	151.1739654541016	-1296.022338867188	1665.154663085938	-10.27411842346191	-1268.052124023438	964.587890625	-95.01753997802734	-1286.927001953125	967.4576416015625	247.4351501464844	-1163.333862304688	983.265380859375	221.8042297363281	-1154.272216796875	976.4033813476562	-47.31818389892578	-1191.57470703125	502.8372192382812	-50.45975494384766	-1225.892211914062	642.974365234375	-84.82630157470703	-1329.70263671875	53.32521057128906	-69.21415710449219	-1268.166259765625	266.044189453125	-73.0927734375	-1123.55712890625	48.28970336914062	-70.21598815917969	-1170.4482421875	46.99563217163086	-14.70317935943604	-1227.864379882812	44.14775466918945	-110.9387054443359	-1378.530029296875	50.03848648071289	9.341985702514648	-1218.587646484375	521.04638671875	226.7158508300781	-1204.895141601562	793.0549926757812	253.5677642822266	-1311.144287109375	47.23943710327148	233.7056579589844	-1242.232543945312	400.8478393554688	233.8503570556641	-1097.340698242188	43.49081420898438	177.4468536376953	-1162.01220703125	47.0353889465332	143.0598602294922	-1184.570434570312	50.14169311523438	238.3008270263672	-1362.325317382812	46.06192398071289	182.9838714599609	
68	0.67	-1356.862182617188	1037.077270507812	171.4864807128906	-1371.058349609375	1028.58984375	-4.215457439422607	-1361.523681640625	1083.823974609375	76.09226989746094	-1119.948608398438	1290.126953125	74.18923187255859	-1385.668090820312	1218.01611328125	70.40535736083984	-1333.877319335938	1486.008422851562	64.54602813720703	-1152.331665039062	1404.207763671875	70.3421630859375	-1394.406005859375	1347.101684570312	141.5146942138672	-1351.825805664062	1446.141479492188	-37.79127502441406	-1246.336547851562	1452.510131835938	-108.1370849609375	-1256.2880859375	1324.21337890625	-184.9169006347656	-1228.672485351562	1109.484008789062	-201.4805603027344	-1295.3857421875	1093.943359375	-119.2134780883789	-1128.121704101562	877.8287963867188	-125.8472671508789	-1183.092529296875	860.2821655273438	-186.2133026123047	-1202.734375	1000.9716796875	-204.3962860107422	-1115.288696289062	698.1808471679688	-88.77108001708984	-1145.394775390625	781.258544921875	-175.6363372802734	-1099.656616210938	798.033447265625	-124.4877243041992	-1273.169677734375	1452.815795898438	243.1535034179688	-1280.931518554688	1381.9287109375	307.9985656738281	-1288.055786132812	1113.14599609375	337.2182312011719	-1275.597900390625	1092.18701171875	242.0592498779297	-1126.524658203125	873.0437622070312	301.436767578125	-1194.659790039062	855.4129638671875	354.4618225097656	-1268.439453125	1035.551879882812	344.2113037109375	-1125.404296875	685.5748901367188	285.6615905761719	-1098.587158203125	770.91162109375	304.5179748535156	-1155.343383789062	767.7562866210938	358.3907775878906	-1318.500610351562	1649.80029296875	125.0460891723633	-1128.084106445312	1713.50732421875	29.48219299316406	-1158.275146484375	1705.2939453125	151.1346130371094	-1295.807250976562	1665.243896484375	-10.23847007751465	-1267.974731445312	964.5855712890625	-95.1705322265625	-1286.69287109375	967.477294921875	247.310791015625	-1163.082153320312	983.1878051757812	221.5924835205078	-1154.29150390625	976.3727416992188	-47.55760192871094	-1191.48681640625	502.8177490234375	-50.54555130004883	-1225.814086914062	642.94482421875	-84.94126129150391	-1329.706298828125	53.32443618774414	-69.21470642089844	-1268.099731445312	266.005615234375	-73.12104034423828	-1123.562133789062	48.29213333129883	-70.21739196777344	-1170.446533203125	46.99703979492188	-14.71035671234131	-1227.87158203125	44.15267562866211	-110.9445037841797	-1378.5283203125	50.04216003417969	9.342696189880371	-1218.678344726562	521.0428466796875	226.6415252685547	-1204.731811523438	793.083251953125	253.4429168701172	-1311.156005859375	47.23331451416016	233.7248840332031	-1242.317016601562	400.8511657714844	233.8312530517578	-1097.349609375	43.4920768737793	177.4458770751953	-1162.014282226562	47.04108428955078	143.0648193359375	-1184.561279296875	50.14458465576172	238.3072204589844	-1362.597778320312	46.34518432617188	182.8149871826172	
69	0.68	-1356.676025390625	1037.106201171875	171.3660736083984	-1370.998901367188	1028.605224609375	-4.341228008270264	-1361.377563476562	1083.822998046875	75.9879150390625	-1119.769775390625	1290.09521484375	73.98989868164062	-1385.482055664062	1218.02392578125	70.37167358398438	-1333.719970703125	1485.997802734375	64.43173217773438	-1152.08251953125	1404.189697265625	70.18250274658203	-1394.09130859375	1347.088012695312	141.5281219482422	-1351.70458984375	1446.197631835938	-37.80181121826172	-1246.278442382812	1452.54833984375	-108.2722930908203	-1256.397094726562	1324.2529296875	-185.0108184814453	-1229.175537109375	1109.576416015625	-201.7153778076172	-1295.623901367188	1094.040283203125	-119.2497406005859	-1128.946655273438	877.5048217773438	-126.8117828369141	-1184.10107421875	860.2713012695312	-187.1213684082031	-1203.5068359375	1001.01904296875	-204.8994750976562	-1116.623779296875	697.6503295898438	-90.18404388427734	-1146.54736328125	781.1228637695312	-176.8162078857422	-1100.678344726562	797.6883544921875	-125.7183227539062	-1272.826782226562	1452.73828125	243.0319671630859	-1280.471923828125	1381.827880859375	307.9095764160156	-1287.841186523438	1113.095703125	337.0350952148438	-1275.304321289062	1092.0546875	242.0663604736328	-1127.099243164062	872.4567260742188	301.8058471679688	-1195.303344726562	855.1968383789062	354.7872314453125	-1268.366821289062	1035.55615234375	344.1492919921875	-1126.411010742188	684.960205078125	286.4088134765625	-1099.520263671875	770.231201171875	305.0621643066406	-1156.228637695312	767.4042358398438	358.9889526367188	-1318.177124023438	1649.877807617188	125.0415344238281	-1127.678100585938	1713.452758789062	29.42211532592773	-1157.813720703125	1705.112548828125	151.1076354980469	-1295.550659179688	1665.342529296875	-10.19914531707764	-1267.884521484375	964.5748901367188	-95.32678985595703	-1286.451782226562	967.5036010742188	247.1808319091797	-1162.837646484375	983.1062622070312	221.3753356933594	-1154.296997070312	976.34619140625	-47.80029678344727	-1191.41064453125	502.7962036132812	-50.6358528137207	-1225.735595703125	642.9155883789062	-85.06211090087891	-1329.70703125	53.32415008544922	-69.21401214599609	-1268.018798828125	265.9658203125	-73.15966796875	-1123.559692382812	48.28910064697266	-70.21675109863281	-1170.442993164062	46.99708557128906	-14.71711444854736	-1227.876708984375	44.15704345703125	-110.9482269287109	-1378.524658203125	50.04844284057617	9.344006538391113	-1218.789794921875	521.0416870117188	226.5464782714844	-1204.570556640625	793.1158447265625	253.3135223388672	-1311.158569335938	47.22766494750977	233.7422332763672	-1242.414428710938	400.855712890625	233.7978363037109	-1097.357421875	43.49166107177734	177.4415740966797	-1162.016357421875	47.04475402832031	143.0674285888672	-1184.550903320312	50.14736557006836	238.3115844726562	-1362.842651367188	46.58769226074219	182.6408386230469	
